<svg id="svg" version="1.1" xmlns="http://www.w3.org/2000/svg" xmlns:xlink="http://www.w3.org/1999/xlink" width="512" height="512" viewBox="0, 0, 400,400"><g id="svgg"><path id="path0" d="M100.182 60.182 C 99.642 60.722,99.200 61.579,99.200 62.087 C 99.200 62.661,98.859 63.160,98.300 63.405 C 97.608 63.709,97.372 64.188,97.278 65.475 C 97.178 66.849,96.999 67.173,96.278 67.275 C 95.536 67.381,95.381 67.694,95.278 69.300 C 95.168 71.015,95.061 71.200,94.178 71.200 C 93.446 71.200,93.200 71.415,93.200 72.054 C 93.200 72.524,92.750 73.325,92.200 73.835 C 91.565 74.424,91.200 75.196,91.200 75.953 C 91.200 76.884,91.003 77.172,90.300 77.272 C 89.532 77.381,89.382 77.679,89.278 79.300 C 89.168 81.015,89.061 81.200,88.178 81.200 C 87.271 81.200,87.200 81.345,87.200 83.200 C 87.200 85.067,87.133 85.200,86.200 85.200 C 85.400 85.200,85.200 85.400,85.200 86.200 C 85.200 86.750,85.033 87.200,84.829 87.200 C 84.028 87.200,83.200 88.523,83.200 89.801 C 83.200 90.890,83.029 91.169,82.300 91.272 C 81.532 91.381,81.382 91.679,81.278 93.300 C 81.168 95.015,81.061 95.200,80.178 95.200 C 79.271 95.200,79.200 95.345,79.200 97.200 C 79.200 99.067,79.133 99.200,78.200 99.200 C 77.428 99.200,77.200 99.406,77.200 100.105 C 77.200 100.660,76.852 101.163,76.300 101.405 C 75.608 101.709,75.372 102.188,75.278 103.475 C 75.178 104.849,74.999 105.173,74.278 105.275 C 73.536 105.381,73.381 105.694,73.278 107.300 C 73.168 109.015,73.061 109.200,72.178 109.200 C 71.406 109.200,71.200 109.407,71.200 110.182 C 71.200 110.722,70.750 111.614,70.200 112.164 C 69.650 112.714,69.200 113.579,69.200 114.087 C 69.200 114.661,68.859 115.160,68.300 115.405 C 67.608 115.709,67.372 116.188,67.278 117.475 C 67.178 118.849,66.999 119.173,66.278 119.275 C 65.536 119.381,65.381 119.694,65.278 121.300 C 65.168 123.015,65.061 123.200,64.178 123.200 C 63.446 123.200,63.200 123.415,63.200 124.054 C 63.200 124.524,62.750 125.325,62.200 125.835 C 61.371 126.603,61.200 127.131,61.200 128.924 L 61.200 131.086 63.659 131.343 C 65.011 131.484,82.650 131.600,102.856 131.600 L 139.595 131.600 140.789 133.248 C 141.446 134.155,142.203 135.505,142.472 136.248 C 142.741 136.992,143.085 137.600,143.236 137.600 C 143.388 137.600,143.904 138.365,144.384 139.300 C 145.266 141.019,146.572 143.329,148.400 146.400 C 150.338 149.658,151.567 151.817,152.383 153.400 C 152.837 154.280,153.745 155.810,154.400 156.800 C 155.055 157.790,155.965 159.320,156.420 160.200 C 156.876 161.080,157.733 162.625,158.324 163.633 C 162.851 171.350,163.473 172.435,164.383 174.200 C 164.837 175.080,165.745 176.610,166.400 177.600 C 167.055 178.590,167.963 180.120,168.417 181.000 C 169.233 182.583,170.462 184.742,172.400 188.000 C 173.640 190.083,175.161 192.700,176.156 194.462 C 176.572 195.198,177.337 196.309,177.856 196.931 C 178.375 197.553,178.800 198.298,178.800 198.587 C 178.800 198.877,179.250 199.226,179.800 199.364 C 180.350 199.502,180.800 199.796,180.800 200.018 C 180.800 201.327,183.184 198.964,184.522 196.329 C 185.342 194.712,186.408 192.762,186.890 191.995 C 187.373 191.228,188.096 189.970,188.498 189.200 C 188.899 188.430,189.665 187.080,190.200 186.200 C 190.734 185.320,191.633 183.790,192.197 182.800 C 192.761 181.810,193.668 180.235,194.211 179.300 C 194.755 178.365,195.645 176.835,196.188 175.900 C 196.731 174.965,197.533 173.548,197.970 172.751 C 198.407 171.953,200.032 169.163,201.581 166.551 C 203.130 163.938,204.398 161.597,204.399 161.349 C 204.399 161.101,204.680 160.665,205.023 160.381 C 205.366 160.096,205.913 159.226,206.239 158.446 C 206.564 157.666,206.973 156.932,207.147 156.814 C 207.321 156.696,207.741 156.060,208.082 155.400 C 208.959 153.700,212.889 146.848,215.423 142.600 C 216.604 140.620,217.867 138.325,218.229 137.500 C 218.591 136.675,219.028 136.000,219.200 136.000 C 219.372 136.000,219.819 135.235,220.193 134.300 C 220.567 133.365,221.317 131.659,221.861 130.509 C 223.122 127.842,223.049 125.464,221.700 125.272 C 220.968 125.168,220.800 124.890,220.800 123.781 C 220.800 122.769,220.543 122.250,219.800 121.763 C 219.196 121.367,218.800 120.730,218.800 120.154 C 218.800 119.403,218.587 119.200,217.800 119.200 C 216.867 119.200,216.800 119.067,216.800 117.200 C 216.800 115.345,216.729 115.200,215.822 115.200 C 214.939 115.200,214.832 115.015,214.722 113.300 C 214.618 111.679,214.468 111.381,213.700 111.272 C 213.006 111.174,212.800 110.882,212.800 110.001 C 212.800 109.258,212.450 108.583,211.800 108.071 C 211.190 107.592,210.800 106.878,210.800 106.242 C 210.800 105.397,210.611 105.200,209.800 105.200 C 208.867 105.200,208.800 105.067,208.800 103.200 C 208.800 101.346,208.729 101.200,207.823 101.200 C 206.960 101.200,206.832 101.002,206.723 99.500 C 206.628 98.187,206.395 97.710,205.700 97.405 C 205.148 97.163,204.800 96.660,204.800 96.105 C 204.800 95.406,204.572 95.200,203.800 95.200 C 202.867 95.200,202.800 95.067,202.800 93.200 C 202.800 91.345,202.729 91.200,201.822 91.200 C 200.939 91.200,200.832 91.015,200.722 89.300 C 200.618 87.679,200.468 87.381,199.700 87.272 C 198.971 87.169,198.800 86.890,198.800 85.801 C 198.800 84.523,197.972 83.200,197.171 83.200 C 196.967 83.200,196.800 82.750,196.800 82.200 C 196.800 81.400,196.600 81.200,195.800 81.200 C 194.867 81.200,194.800 81.067,194.800 79.200 C 194.800 77.345,194.729 77.200,193.822 77.200 C 192.939 77.200,192.832 77.015,192.722 75.300 C 192.618 73.679,192.468 73.381,191.700 73.272 C 190.968 73.168,190.800 72.890,190.800 71.781 C 190.800 70.769,190.543 70.250,189.800 69.763 C 189.196 69.367,188.800 68.730,188.800 68.154 C 188.800 67.403,188.587 67.200,187.800 67.200 C 186.867 67.200,186.800 67.067,186.800 65.200 C 186.800 63.333,186.733 63.200,185.800 63.200 C 184.885 63.200,184.800 63.050,184.800 61.443 C 184.800 59.026,188.093 59.200,142.349 59.200 L 101.164 59.200 100.182 60.182 M242.870 127.500 C 253.578 127.559,271.218 127.559,282.070 127.500 C 292.921 127.441,284.160 127.392,262.600 127.392 C 241.040 127.392,232.161 127.441,242.870 127.500 M355.444 223.928 C 355.315 224.138,355.462 224.520,355.772 224.777 C 356.217 225.146,356.317 225.116,356.246 224.634 C 356.125 223.808,355.732 223.462,355.444 223.928 " stroke="none" fill="#71b14a" fill-rule="evenodd"></path><path id="path1" d="M61.776 131.681 C 63.411 132.774,64.961 134.653,65.716 136.459 C 66.024 137.197,66.574 138.047,66.938 138.349 C 67.302 138.651,67.600 139.101,67.600 139.349 C 67.600 139.597,68.517 141.330,69.637 143.200 C 70.757 145.070,71.843 146.960,72.051 147.400 C 72.259 147.840,73.040 149.190,73.787 150.400 C 74.534 151.610,75.523 153.320,75.985 154.200 C 76.447 155.080,77.263 156.520,77.798 157.400 C 78.333 158.280,79.233 159.810,79.797 160.800 C 80.361 161.790,81.268 163.365,81.811 164.300 C 83.739 167.615,84.623 169.152,86.600 172.625 C 87.700 174.558,89.050 176.908,89.600 177.848 C 92.935 183.546,93.832 185.068,94.195 185.644 C 94.418 185.999,95.102 187.169,95.715 188.244 C 96.328 189.320,97.353 191.100,97.993 192.200 C 98.633 193.300,99.436 194.778,99.778 195.485 C 100.119 196.192,100.957 197.407,101.641 198.185 L 102.883 199.600 139.897 199.600 C 174.680 199.600,176.944 199.642,177.443 200.300 C 178.283 201.407,178.096 203.315,177.000 204.800 C 176.450 205.545,176.000 206.377,176.000 206.647 C 176.000 206.917,175.550 207.673,175.000 208.327 C 174.450 208.981,174.000 209.780,174.000 210.104 C 174.000 210.427,173.601 211.199,173.113 211.819 C 172.180 213.006,171.240 214.583,170.245 216.632 C 169.915 217.309,169.377 218.087,169.049 218.359 C 168.720 218.632,168.341 219.360,168.205 219.977 C 168.069 220.595,167.518 221.514,166.979 222.019 C 166.441 222.525,166.000 223.244,166.000 223.616 C 166.000 223.988,165.660 224.724,165.244 225.253 C 164.829 225.781,164.189 226.840,163.823 227.607 C 162.794 229.759,161.857 231.348,160.887 232.581 C 160.399 233.201,160.000 233.940,160.000 234.223 C 160.000 234.507,159.550 235.273,159.000 235.927 C 158.450 236.581,158.000 237.380,158.000 237.704 C 158.000 238.027,157.674 238.721,157.275 239.246 C 156.627 240.100,155.683 241.654,153.536 245.400 C 153.158 246.060,152.493 247.345,152.058 248.256 C 151.622 249.167,151.069 250.034,150.827 250.183 C 150.586 250.333,150.124 251.027,149.801 251.727 C 149.479 252.427,148.678 253.900,148.021 255.000 C 147.365 256.100,146.486 257.723,146.068 258.606 C 145.651 259.489,145.015 260.456,144.655 260.755 C 144.295 261.053,144.000 261.622,144.000 262.018 C 144.000 262.414,143.588 263.247,143.084 263.869 C 141.146 266.263,140.685 268.610,141.931 269.738 C 142.601 270.344,145.880 270.400,180.887 270.400 C 216.696 270.400,219.166 270.444,219.973 271.100 C 220.905 271.858,222.307 274.014,223.605 276.683 C 224.055 277.609,224.593 278.472,224.800 278.600 C 225.007 278.728,225.543 279.591,225.990 280.517 C 226.437 281.442,227.246 282.920,227.789 283.800 C 228.331 284.680,229.153 286.120,229.615 287.000 C 230.077 287.880,231.063 289.590,231.806 290.800 C 232.549 292.010,233.445 293.540,233.797 294.200 C 234.148 294.860,234.923 296.237,235.518 297.260 C 236.113 298.283,237.026 299.891,237.546 300.835 C 238.067 301.778,238.742 302.799,239.046 303.103 C 239.351 303.408,239.600 303.900,239.600 304.198 C 239.600 304.495,240.050 305.273,240.600 305.927 C 241.150 306.581,241.600 307.236,241.600 307.383 C 241.600 307.530,242.725 309.617,244.100 312.021 C 245.475 314.424,246.886 316.920,247.236 317.567 C 247.585 318.214,248.215 319.251,248.634 319.872 C 249.054 320.492,249.620 321.450,249.892 322.000 C 250.164 322.550,250.925 323.900,251.584 325.000 C 252.243 326.100,253.154 327.765,253.609 328.700 C 254.065 329.635,254.582 330.400,254.758 330.400 C 254.934 330.400,255.377 331.075,255.742 331.900 C 256.107 332.725,257.113 334.660,257.978 336.200 C 258.842 337.740,259.561 339.405,259.575 339.900 C 259.619 341.469,260.610 340.920,260.658 339.300 C 260.722 337.176,261.462 334.700,262.308 333.783 C 262.705 333.352,263.276 332.370,263.577 331.600 C 263.877 330.830,264.337 330.020,264.599 329.800 C 264.860 329.580,265.296 328.726,265.567 327.903 C 265.838 327.080,266.297 326.270,266.587 326.103 C 266.877 325.936,267.410 325.170,267.773 324.400 C 269.153 321.466,270.110 319.808,270.650 319.411 C 270.957 319.185,271.285 318.607,271.377 318.126 C 271.601 316.953,272.348 315.600,272.771 315.600 C 272.959 315.600,273.232 315.125,273.378 314.545 C 273.524 313.965,274.083 312.913,274.621 312.208 C 275.160 311.502,275.600 310.743,275.600 310.521 C 275.600 310.299,276.050 309.631,276.600 309.038 C 277.150 308.444,277.600 307.636,277.600 307.241 C 277.600 306.847,277.944 306.213,278.364 305.833 C 278.784 305.452,279.248 304.659,279.395 304.071 C 279.542 303.482,279.935 302.697,280.268 302.328 C 280.926 301.598,281.896 299.937,283.175 297.353 C 283.624 296.447,284.251 295.489,284.570 295.225 C 284.888 294.961,285.259 294.241,285.394 293.626 C 285.529 293.011,285.953 292.169,286.335 291.754 C 286.717 291.339,287.264 290.428,287.551 289.729 C 287.838 289.030,288.417 288.147,288.837 287.767 C 289.256 287.387,289.600 286.744,289.600 286.338 C 289.600 285.932,289.955 285.245,290.390 284.810 C 290.824 284.376,291.295 283.562,291.436 283.001 C 291.576 282.440,292.002 281.761,292.381 281.491 C 292.760 281.221,293.191 280.513,293.339 279.917 C 293.486 279.321,294.055 278.350,294.603 277.759 C 295.152 277.167,295.600 276.349,295.600 275.942 C 295.600 275.534,295.956 274.844,296.391 274.409 C 298.218 272.582,298.564 270.295,297.328 268.200 C 296.863 267.411,296.373 267.399,260.828 267.290 L 224.800 267.179 224.800 265.990 C 224.800 264.987,224.957 264.800,225.800 264.800 C 226.595 264.800,226.800 264.599,226.800 263.818 C 226.800 263.278,227.250 262.386,227.800 261.836 C 228.350 261.286,228.800 260.378,228.800 259.818 C 228.800 258.999,228.995 258.800,229.800 258.800 C 230.733 258.800,230.800 258.667,230.800 256.800 C 230.800 254.945,230.871 254.800,231.778 254.800 C 232.661 254.800,232.768 254.615,232.878 252.900 C 232.982 251.279,233.132 250.981,233.900 250.872 C 234.546 250.780,234.800 250.475,234.800 249.790 C 234.800 249.266,235.250 248.386,235.800 247.836 C 236.350 247.286,236.800 246.378,236.800 245.818 C 236.800 244.999,236.995 244.800,237.800 244.800 C 238.733 244.800,238.800 244.667,238.800 242.800 C 238.800 240.945,238.871 240.800,239.778 240.800 C 240.661 240.800,240.768 240.615,240.878 238.900 C 240.982 237.279,241.132 236.981,241.900 236.872 C 242.551 236.780,242.800 236.476,242.800 235.772 C 242.800 235.002,243.008 234.800,243.800 234.800 C 244.733 234.800,244.800 234.667,244.800 232.800 C 244.800 230.933,244.867 230.800,245.800 230.800 C 246.733 230.800,246.800 230.667,246.800 228.800 C 246.800 226.933,246.867 226.800,247.800 226.800 C 248.648 226.800,248.800 226.615,248.800 225.581 C 248.800 224.794,249.155 224.033,249.800 223.435 C 250.350 222.925,250.800 222.124,250.800 221.654 C 250.800 221.010,251.046 220.800,251.800 220.800 C 252.733 220.800,252.800 220.667,252.800 218.800 C 252.800 216.844,252.827 216.800,254.000 216.800 C 255.173 216.800,255.200 216.756,255.200 214.800 C 255.200 212.933,255.267 212.800,256.200 212.800 C 257.025 212.800,257.200 212.607,257.200 211.696 C 257.200 211.072,257.635 210.122,258.200 209.513 C 258.750 208.920,259.200 208.067,259.200 207.617 C 259.200 207.052,259.461 206.800,260.045 206.800 C 261.073 206.800,260.823 203.737,259.665 202.141 L 259.000 201.225 222.146 201.213 C 190.215 201.202,185.138 201.280,184.146 201.798 C 182.210 202.807,181.156 202.542,179.200 200.554 C 176.559 197.869,178.595 198.000,139.368 198.000 L 103.189 198.000 102.013 196.700 C 101.366 195.985,100.728 194.924,100.596 194.341 C 100.463 193.759,100.012 192.973,99.592 192.593 C 99.173 192.214,98.635 191.311,98.396 190.587 C 98.157 189.863,97.700 189.170,97.381 189.048 C 97.061 188.925,96.800 188.473,96.800 188.043 C 96.800 187.613,96.362 186.740,95.826 186.104 C 95.290 185.467,94.733 184.471,94.587 183.890 C 94.441 183.308,94.067 182.622,93.756 182.364 C 93.445 182.105,92.843 181.108,92.418 180.147 C 91.993 179.186,91.469 178.400,91.254 178.400 C 91.039 178.400,90.745 177.860,90.600 177.200 C 90.455 176.541,90.020 175.776,89.633 175.500 C 89.246 175.225,88.806 174.500,88.654 173.890 C 88.503 173.279,88.050 172.450,87.648 172.048 C 87.245 171.645,86.795 170.835,86.648 170.248 C 86.500 169.660,86.029 168.829,85.600 168.400 C 85.171 167.971,84.708 167.173,84.571 166.627 C 84.434 166.080,84.067 165.422,83.756 165.164 C 83.445 164.905,82.843 163.908,82.418 162.947 C 81.993 161.986,81.477 161.200,81.272 161.200 C 81.068 161.200,80.793 160.666,80.663 160.013 C 80.532 159.359,80.077 158.477,79.652 158.052 C 79.227 157.627,78.751 156.856,78.594 156.339 C 78.437 155.823,77.998 155.040,77.619 154.600 C 77.240 154.160,76.704 153.228,76.428 152.529 C 76.152 151.830,75.699 151.170,75.420 151.063 C 75.142 150.956,74.805 150.327,74.673 149.665 C 74.541 149.003,74.087 148.132,73.666 147.731 C 73.244 147.329,72.766 146.550,72.604 146.000 C 72.441 145.450,71.989 144.640,71.600 144.200 C 71.211 143.760,70.757 142.950,70.591 142.400 C 70.426 141.850,69.865 140.891,69.345 140.269 C 68.825 139.647,68.400 138.910,68.400 138.631 C 68.400 138.352,68.050 137.807,67.623 137.421 C 67.195 137.034,66.738 136.226,66.606 135.627 C 66.378 134.589,63.567 131.600,62.819 131.600 C 62.625 131.600,62.136 131.501,61.733 131.381 C 61.075 131.184,61.080 131.215,61.776 131.681 " stroke="none" fill="#4494bb" fill-rule="evenodd"></path><path id="path2" d="M194.800 80.600 C 194.800 80.930,195.092 81.200,195.449 81.200 C 195.980 81.200,196.008 81.091,195.600 80.600 C 195.326 80.270,195.034 80.000,194.951 80.000 C 194.868 80.000,194.800 80.270,194.800 80.600 M86.400 84.600 C 85.992 85.091,86.020 85.200,86.551 85.200 C 86.908 85.200,87.200 84.930,87.200 84.600 C 87.200 84.270,87.132 84.000,87.049 84.000 C 86.966 84.000,86.674 84.270,86.400 84.600 M202.973 94.294 C 203.024 94.646,203.354 94.976,203.706 95.027 C 204.457 95.138,204.210 94.166,203.409 93.859 C 203.088 93.736,202.916 93.907,202.973 94.294 M78.227 98.370 C 77.565 99.101,77.565 99.134,78.232 99.036 C 78.618 98.980,78.978 98.633,79.031 98.267 C 79.156 97.420,79.078 97.430,78.227 98.370 M222.800 128.220 C 222.800 128.671,222.636 129.211,222.436 129.420 C 222.236 129.629,221.491 131.195,220.781 132.900 C 220.070 134.605,219.354 136.000,219.188 136.000 C 219.022 136.000,218.591 136.675,218.229 137.500 C 217.867 138.325,216.604 140.620,215.423 142.600 C 212.889 146.848,208.959 153.700,208.082 155.400 C 207.741 156.060,207.321 156.696,207.147 156.814 C 206.973 156.932,206.564 157.666,206.239 158.446 C 205.913 159.226,205.366 160.096,205.023 160.381 C 204.680 160.665,204.399 161.101,204.399 161.349 C 204.398 161.597,203.130 163.938,201.581 166.551 C 200.032 169.163,198.407 171.953,197.970 172.751 C 197.533 173.548,196.731 174.965,196.188 175.900 C 195.645 176.835,194.755 178.365,194.211 179.300 C 193.668 180.235,192.761 181.810,192.197 182.800 C 191.633 183.790,190.734 185.320,190.200 186.200 C 189.665 187.080,188.899 188.430,188.498 189.200 C 188.096 189.970,187.373 191.228,186.890 191.995 C 186.408 192.762,185.342 194.712,184.522 196.329 C 183.184 198.964,180.800 201.327,180.800 200.018 C 180.800 199.796,180.350 199.502,179.800 199.364 C 179.250 199.226,178.800 198.887,178.800 198.611 C 178.800 198.334,178.395 197.600,177.900 196.979 C 176.773 195.565,175.465 193.476,174.407 191.400 C 173.959 190.520,173.055 188.990,172.400 188.000 C 171.745 187.010,170.837 185.480,170.383 184.600 C 169.567 183.017,168.338 180.858,166.400 177.600 C 164.462 174.342,163.233 172.183,162.417 170.600 C 161.963 169.720,161.063 168.190,160.417 167.200 C 159.771 166.210,158.866 164.680,158.405 163.800 C 157.583 162.230,156.388 160.141,154.400 156.800 C 152.462 153.542,151.233 151.383,150.417 149.800 C 149.963 148.920,149.055 147.390,148.400 146.400 C 147.745 145.410,146.839 143.880,146.388 143.000 C 145.124 140.532,143.557 137.825,143.264 137.601 C 143.119 137.491,142.491 136.380,141.868 135.133 C 141.246 133.887,140.426 132.585,140.046 132.241 C 139.431 131.685,135.162 131.604,101.359 131.508 C 70.767 131.421,63.551 131.497,64.327 131.900 C 65.078 132.289,73.453 132.401,102.146 132.406 C 122.416 132.409,139.186 132.544,139.413 132.706 C 139.640 132.868,140.450 134.220,141.213 135.710 C 143.805 140.775,144.200 141.492,144.753 142.151 C 145.409 142.933,146.445 144.758,147.561 147.100 C 148.007 148.035,148.522 148.800,148.705 148.800 C 148.889 148.800,149.266 149.428,149.544 150.196 C 149.822 150.963,150.282 151.825,150.568 152.111 C 150.854 152.397,151.473 153.434,151.945 154.415 C 152.416 155.397,153.240 156.920,153.775 157.800 C 154.309 158.680,155.143 160.120,155.627 161.000 C 156.111 161.880,156.618 162.690,156.754 162.800 C 156.889 162.910,157.326 163.630,157.724 164.400 C 158.122 165.170,158.966 166.700,159.600 167.800 C 160.234 168.900,161.078 170.430,161.476 171.200 C 161.874 171.970,162.349 172.780,162.530 173.000 C 163.112 173.706,164.754 176.550,165.534 178.206 C 165.950 179.089,166.585 180.056,166.945 180.355 C 167.305 180.653,167.600 181.072,167.600 181.284 C 167.600 181.496,168.275 182.832,169.100 184.251 C 172.030 189.292,172.768 190.619,173.525 192.206 C 173.946 193.089,174.585 194.056,174.945 194.355 C 175.305 194.653,175.600 195.146,175.600 195.449 C 175.600 195.752,175.917 196.317,176.305 196.705 C 176.693 197.093,177.457 198.038,178.002 198.805 C 180.211 201.913,181.839 202.600,184.146 201.398 C 185.138 200.880,190.240 200.800,222.217 200.800 L 259.142 200.800 259.905 201.771 C 260.325 202.304,260.997 203.609,261.398 204.671 C 261.799 205.732,262.281 206.702,262.469 206.827 C 262.831 207.067,264.217 209.515,265.516 212.206 C 265.942 213.089,266.585 214.056,266.945 214.355 C 267.305 214.653,267.600 215.202,267.600 215.574 C 267.600 215.945,267.915 216.598,268.300 217.025 C 268.685 217.451,269.326 218.430,269.724 219.200 C 270.122 219.970,270.962 221.500,271.592 222.600 C 272.222 223.700,273.085 225.255,273.510 226.054 C 273.935 226.854,274.499 227.754,274.763 228.054 C 275.280 228.642,276.262 230.389,277.599 233.100 C 278.060 234.035,278.573 234.800,278.738 234.800 C 278.904 234.800,279.266 235.428,279.544 236.196 C 279.822 236.963,280.273 237.818,280.547 238.096 C 281.015 238.569,281.557 239.518,283.576 243.400 C 284.034 244.280,284.945 245.810,285.600 246.800 C 286.255 247.790,287.129 249.323,287.541 250.206 C 287.953 251.089,288.585 252.056,288.945 252.355 C 289.305 252.653,289.600 253.119,289.600 253.389 C 289.600 253.659,290.275 254.995,291.100 256.357 C 293.280 259.957,294.647 262.383,295.521 264.206 C 295.944 265.089,296.585 266.056,296.945 266.355 C 297.305 266.653,297.600 267.136,297.600 267.426 C 297.600 267.717,297.931 268.190,298.335 268.477 C 299.167 269.068,299.788 271.037,299.248 271.370 C 299.053 271.491,298.502 272.357,298.025 273.295 C 297.548 274.233,296.629 275.900,295.983 277.000 C 295.336 278.100,294.349 279.810,293.789 280.800 C 293.229 281.790,292.373 283.266,291.886 284.080 C 291.399 284.895,290.115 287.145,289.034 289.080 C 287.953 291.016,286.939 292.690,286.779 292.800 C 286.620 292.910,286.190 293.630,285.823 294.400 C 285.160 295.793,284.253 297.403,281.620 301.863 C 279.560 305.349,278.906 306.496,278.346 307.600 C 278.067 308.150,277.478 309.130,277.036 309.779 C 276.595 310.427,275.944 311.507,275.589 312.179 C 275.234 312.850,274.522 314.120,274.005 315.000 C 273.488 315.880,272.629 317.410,272.096 318.400 C 271.563 319.390,270.908 320.470,270.641 320.800 C 270.374 321.130,269.941 321.850,269.680 322.400 C 269.419 322.950,268.709 324.250,268.102 325.290 C 261.611 336.416,261.167 337.278,260.898 339.284 L 260.694 340.804 301.647 340.702 L 342.600 340.600 342.722 338.700 C 342.832 336.985,342.939 336.800,343.822 336.800 C 344.550 336.800,344.800 336.584,344.800 335.958 C 344.800 335.494,345.239 334.769,345.776 334.347 C 346.435 333.829,346.793 333.095,346.876 332.089 C 346.976 330.891,347.157 330.608,347.800 330.640 C 348.474 330.673,348.617 330.393,348.707 328.866 C 348.831 326.785,348.835 326.778,349.927 326.696 C 350.377 326.662,350.736 326.536,350.725 326.417 C 350.521 324.173,350.872 322.845,351.700 322.728 C 352.388 322.630,352.648 322.271,352.803 321.200 C 352.939 320.259,353.114 319.970,353.338 320.319 C 353.596 320.722,353.800 320.732,354.241 320.366 C 354.672 320.008,354.700 319.761,354.356 319.347 C 354.023 318.945,354.021 318.800,354.351 318.800 C 354.598 318.800,354.800 318.421,354.800 317.958 C 354.800 317.494,355.250 316.761,355.800 316.329 C 356.519 315.763,356.800 315.157,356.800 314.171 C 356.800 312.975,356.928 312.800,357.800 312.800 C 358.648 312.800,358.800 312.615,358.800 311.581 C 358.800 310.794,359.155 310.033,359.800 309.435 C 360.350 308.925,360.800 308.136,360.800 307.682 C 360.800 307.130,361.098 306.813,361.700 306.728 C 362.466 306.619,362.618 306.321,362.721 304.725 C 362.823 303.144,362.979 302.831,363.721 302.725 C 364.464 302.619,364.619 302.307,364.722 300.700 C 364.832 298.985,364.939 298.800,365.822 298.800 C 366.741 298.800,367.111 297.885,366.841 296.281 C 366.812 296.106,367.105 296.016,367.494 296.081 C 367.990 296.165,368.162 295.980,368.073 295.460 C 367.997 295.016,368.117 294.825,368.373 294.983 C 368.639 295.148,368.800 294.797,368.800 294.051 C 368.800 293.116,368.996 292.828,369.700 292.728 C 370.461 292.620,370.618 292.319,370.718 290.787 C 370.811 289.366,371.027 288.890,371.718 288.587 C 372.390 288.292,372.629 287.801,372.722 286.525 C 372.822 285.151,373.001 284.827,373.722 284.725 C 374.338 284.637,374.637 284.278,374.724 283.522 C 374.803 282.842,375.038 282.516,375.360 282.640 C 375.892 282.844,376.874 281.939,376.767 281.342 C 376.477 279.727,376.854 278.800,377.800 278.800 C 378.733 278.800,378.800 278.667,378.800 276.800 C 378.800 274.840,379.040 274.544,380.470 274.743 C 380.860 274.797,380.804 266.254,380.411 265.617 C 380.229 265.324,379.793 265.194,379.440 265.329 C 378.948 265.518,378.800 265.319,378.800 264.467 C 378.800 263.858,378.575 263.118,378.300 262.821 C 377.893 262.383,377.912 262.345,378.400 262.618 C 378.916 262.907,378.924 262.859,378.455 262.281 C 378.155 261.911,377.769 261.696,377.597 261.802 C 377.226 262.031,376.800 261.049,376.800 259.967 C 376.800 259.545,376.665 259.221,376.500 259.247 C 375.050 259.476,374.800 259.169,374.800 257.157 C 374.800 255.614,374.669 255.165,374.264 255.320 C 373.321 255.682,372.825 255.014,372.680 253.183 C 372.564 251.712,372.387 251.378,371.670 251.272 C 370.897 251.159,370.564 250.384,370.745 249.123 C 370.767 248.971,370.338 248.495,369.792 248.065 C 369.189 247.591,368.800 246.876,368.800 246.242 C 368.800 245.669,368.665 245.221,368.500 245.247 C 367.213 245.451,366.799 245.125,366.787 243.900 C 366.780 243.185,366.510 242.251,366.187 241.824 C 365.864 241.396,365.600 241.207,365.600 241.404 C 365.600 242.488,364.822 240.755,364.736 239.479 C 364.630 237.898,363.937 236.945,363.218 237.389 C 362.967 237.544,362.800 237.220,362.800 236.581 C 362.800 235.920,362.420 235.216,361.800 234.729 C 361.250 234.296,360.800 233.610,360.800 233.204 C 360.800 231.935,360.344 231.200,359.557 231.200 C 358.994 231.200,358.787 230.893,358.750 230.000 C 358.723 229.340,358.655 228.620,358.600 228.400 C 358.545 228.180,358.478 227.799,358.450 227.553 C 358.423 227.308,358.040 227.201,357.600 227.316 C 356.936 227.490,356.800 227.328,356.800 226.363 C 356.800 225.337,356.462 225.013,355.528 225.143 C 355.379 225.164,355.337 224.735,355.436 224.191 C 355.535 223.646,355.432 223.200,355.208 223.200 C 354.984 223.200,354.800 222.750,354.800 222.200 C 354.800 221.400,354.600 221.200,353.800 221.200 C 352.866 221.200,352.800 221.068,352.800 219.182 C 352.800 217.800,352.642 217.185,352.300 217.230 C 351.008 217.398,350.800 217.147,350.800 215.424 C 350.800 214.447,350.589 213.517,350.332 213.358 C 350.005 213.156,349.952 213.300,350.157 213.834 C 350.411 214.499,350.341 214.484,349.625 213.717 C 349.171 213.231,348.800 212.454,348.800 211.990 C 348.800 210.726,348.019 209.507,347.369 209.756 C 346.949 209.918,346.800 209.635,346.800 208.673 C 346.800 207.634,346.629 207.357,345.955 207.307 C 344.823 207.221,344.822 207.219,344.741 205.059 C 344.678 203.394,344.571 203.185,343.835 203.286 C 342.476 203.472,342.471 201.445,343.828 200.278 C 345.001 199.269,344.637 197.270,343.369 197.756 C 342.949 197.918,342.787 197.611,342.750 196.587 C 342.638 193.481,342.614 193.400,341.799 193.400 C 341.229 193.400,340.964 193.091,340.876 192.325 C 340.789 191.572,340.489 191.212,339.876 191.125 C 339.136 191.019,338.981 190.705,338.878 189.100 C 338.768 187.385,338.661 187.200,337.778 187.200 C 336.822 187.200,336.468 185.953,336.777 183.671 C 336.823 183.333,336.513 183.188,335.924 183.271 C 335.100 183.386,334.978 183.206,334.800 181.600 C 334.649 180.238,334.385 179.706,333.716 179.412 C 333.230 179.199,332.780 178.659,332.716 178.212 C 332.646 177.721,332.244 177.349,331.700 177.272 C 330.912 177.160,330.800 176.910,330.800 175.257 C 330.800 173.623,330.687 173.362,329.955 173.307 C 328.878 173.226,328.901 173.257,328.744 171.600 C 328.599 170.079,327.845 169.001,327.203 169.398 C 326.965 169.545,326.800 169.135,326.800 168.397 C 326.800 166.802,326.097 165.477,325.393 165.747 C 325.015 165.892,324.809 165.564,324.724 164.678 C 324.629 163.704,324.386 163.370,323.700 163.272 C 322.971 163.169,322.800 162.889,322.800 161.805 C 322.800 159.947,322.443 159.200,321.557 159.200 C 320.928 159.200,320.800 158.900,320.800 157.424 C 320.800 156.447,320.589 155.517,320.332 155.358 C 320.005 155.156,319.952 155.300,320.157 155.834 C 320.421 156.525,320.372 156.517,319.660 155.754 C 319.225 155.289,318.809 154.479,318.735 153.954 C 318.661 153.429,318.390 153.000,318.133 153.000 C 317.189 153.000,316.937 152.491,316.850 150.400 C 316.808 149.400,316.633 149.200,315.800 149.200 C 314.864 149.200,314.800 149.070,314.800 147.157 C 314.800 145.614,314.669 145.165,314.264 145.320 C 313.328 145.679,312.797 144.999,312.697 143.313 C 312.644 142.413,312.465 141.760,312.300 141.862 C 312.135 141.964,312.000 141.857,312.000 141.624 C 312.000 141.391,311.775 141.245,311.500 141.300 C 311.221 141.356,310.945 140.925,310.876 140.325 C 310.789 139.572,310.489 139.212,309.876 139.125 C 309.136 139.019,308.981 138.705,308.878 137.100 C 308.768 135.385,308.661 135.200,307.778 135.200 C 306.822 135.200,306.468 133.953,306.777 131.671 C 306.822 131.334,306.515 131.189,305.933 131.271 C 305.194 131.375,304.976 131.175,304.808 130.238 C 304.678 129.511,304.324 129.035,303.863 128.968 C 303.458 128.908,303.008 128.728,302.863 128.566 C 302.719 128.405,302.915 128.386,303.300 128.524 C 303.685 128.662,304.000 128.601,304.000 128.387 C 304.000 128.174,303.730 128.000,303.400 128.000 C 303.070 128.000,302.800 127.865,302.800 127.700 C 302.800 127.535,284.800 127.400,262.800 127.400 L 222.800 127.400 222.800 128.220 " stroke="none" fill="#4c9c7c" fill-rule="evenodd"></path><path id="path3" d="M57.200 132.182 C 57.200 132.722,56.750 133.614,56.200 134.164 C 55.650 134.714,55.200 135.609,55.200 136.154 C 55.200 136.876,54.957 137.179,54.300 137.272 C 53.532 137.381,53.382 137.679,53.278 139.300 C 53.168 141.015,53.061 141.200,52.178 141.200 C 51.271 141.200,51.200 141.345,51.200 143.200 C 51.200 145.067,51.133 145.200,50.200 145.200 C 49.400 145.200,49.200 145.400,49.200 146.200 C 49.200 146.750,49.033 147.200,48.829 147.200 C 48.028 147.200,47.200 148.523,47.200 149.801 C 47.200 150.890,47.029 151.169,46.300 151.272 C 45.532 151.381,45.382 151.679,45.278 153.300 C 45.169 155.003,45.057 155.200,44.200 155.200 C 43.343 155.200,43.231 155.397,43.122 157.100 C 43.018 158.721,42.868 159.019,42.100 159.128 C 41.479 159.216,41.200 159.528,41.200 160.133 C 41.200 160.659,40.840 161.168,40.300 161.405 C 39.605 161.710,39.372 162.187,39.277 163.500 C 39.168 165.002,39.040 165.200,38.177 165.200 C 37.271 165.200,37.200 165.346,37.200 167.200 C 37.200 169.067,37.133 169.200,36.200 169.200 C 35.369 169.200,35.200 169.391,35.200 170.330 C 35.200 171.019,34.809 171.828,34.200 172.400 C 33.650 172.917,33.200 173.746,33.200 174.242 C 33.200 174.873,32.930 175.183,32.300 175.272 C 31.532 175.381,31.382 175.679,31.278 177.300 C 31.168 179.015,31.061 179.200,30.178 179.200 C 29.271 179.200,29.200 179.345,29.200 181.200 C 29.200 183.067,29.133 183.200,28.200 183.200 C 27.365 183.200,27.200 183.390,27.200 184.353 C 27.200 185.165,26.966 185.568,26.411 185.713 C 25.853 185.859,25.547 186.393,25.364 187.538 C 25.164 188.783,24.908 189.185,24.252 189.278 C 23.540 189.380,23.380 189.713,23.278 191.300 C 23.169 193.003,23.057 193.200,22.200 193.200 C 21.343 193.200,21.231 193.397,21.122 195.100 C 21.018 196.721,20.868 197.019,20.100 197.128 C 18.646 197.334,18.728 204.764,20.200 206.236 C 20.750 206.786,21.200 207.588,21.200 208.018 C 21.200 208.585,21.474 208.800,22.200 208.800 C 23.133 208.800,23.200 208.933,23.200 210.800 C 23.200 212.655,23.271 212.800,24.178 212.800 C 25.061 212.800,25.168 212.985,25.278 214.700 C 25.382 216.321,25.532 216.619,26.300 216.728 C 26.939 216.819,27.200 217.126,27.200 217.786 C 27.200 218.297,27.647 219.140,28.193 219.658 C 28.775 220.210,29.189 221.055,29.193 221.700 C 29.199 222.605,29.377 222.800,30.200 222.800 C 31.133 222.800,31.200 222.933,31.200 224.800 C 31.200 226.655,31.271 226.800,32.178 226.800 C 33.061 226.800,33.168 226.985,33.278 228.700 C 33.382 230.321,33.532 230.619,34.300 230.728 C 34.943 230.819,35.200 231.125,35.200 231.800 C 35.200 232.475,35.457 232.781,36.100 232.872 C 36.868 232.981,37.018 233.279,37.122 234.900 C 37.232 236.615,37.339 236.800,38.222 236.800 C 39.129 236.800,39.200 236.945,39.200 238.800 C 39.200 240.654,39.271 240.800,40.177 240.800 C 41.040 240.800,41.168 240.998,41.277 242.500 C 41.372 243.813,41.605 244.290,42.300 244.595 C 42.852 244.837,43.200 245.340,43.200 245.895 C 43.200 246.594,43.428 246.800,44.200 246.800 C 45.133 246.800,45.200 246.933,45.200 248.800 C 45.200 250.655,45.271 250.800,46.178 250.800 C 47.061 250.800,47.168 250.985,47.278 252.700 C 47.380 254.287,47.540 254.620,48.252 254.722 C 48.903 254.814,49.164 255.215,49.355 256.409 C 49.511 257.385,49.906 258.136,50.403 258.401 C 50.868 258.650,51.200 259.239,51.200 259.814 C 51.200 260.599,51.404 260.800,52.200 260.800 C 53.141 260.800,53.584 262.367,53.247 264.500 C 53.221 264.665,53.640 264.800,54.178 264.800 C 55.061 264.800,55.168 264.985,55.278 266.700 C 55.382 268.321,55.532 268.619,56.300 268.728 C 56.935 268.818,57.200 269.126,57.200 269.773 C 57.200 270.278,57.675 271.165,58.255 271.745 L 59.309 272.800 99.227 272.800 L 139.144 272.800 139.272 273.700 C 139.354 274.278,139.722 274.646,140.300 274.728 C 140.935 274.818,141.200 275.126,141.200 275.773 C 141.200 276.278,141.660 277.151,142.222 277.713 C 142.785 278.276,143.274 279.117,143.309 279.582 C 143.348 280.099,143.727 280.517,144.286 280.657 C 145.082 280.857,145.200 281.139,145.200 282.843 C 145.200 284.651,145.274 284.800,146.177 284.800 C 147.040 284.800,147.168 284.998,147.277 286.500 C 147.372 287.813,147.605 288.290,148.300 288.595 C 148.795 288.812,149.200 289.252,149.200 289.573 C 149.200 289.894,149.644 290.620,150.187 291.186 C 150.738 291.762,151.217 292.786,151.272 293.508 C 151.351 294.549,151.544 294.800,152.263 294.800 C 153.045 294.800,153.171 295.037,153.278 296.700 C 153.382 298.321,153.532 298.619,154.300 298.728 C 155.029 298.831,155.200 299.110,155.200 300.199 C 155.200 301.477,156.028 302.800,156.829 302.800 C 157.033 302.800,157.200 303.250,157.200 303.800 C 157.200 304.600,157.400 304.800,158.200 304.800 C 159.133 304.800,159.200 304.933,159.200 306.800 C 159.200 307.900,159.335 308.779,159.500 308.753 C 160.860 308.538,161.160 308.867,161.278 310.700 C 161.380 312.287,161.540 312.620,162.252 312.722 C 162.903 312.814,163.164 313.215,163.355 314.409 C 163.511 315.385,163.906 316.136,164.403 316.401 C 164.868 316.650,165.200 317.239,165.200 317.814 C 165.200 318.599,165.404 318.800,166.200 318.800 C 167.133 318.800,167.200 318.933,167.200 320.800 C 167.200 322.655,167.271 322.800,168.178 322.800 C 169.061 322.800,169.168 322.985,169.278 324.700 C 169.382 326.321,169.532 326.619,170.300 326.728 C 170.939 326.819,171.200 327.126,171.200 327.786 C 171.200 328.297,171.647 329.140,172.193 329.658 C 172.775 330.210,173.189 331.055,173.193 331.700 C 173.199 332.605,173.377 332.800,174.200 332.800 C 175.133 332.800,175.200 332.933,175.200 334.800 C 175.200 336.667,175.267 336.800,176.200 336.800 C 177.091 336.800,177.200 336.965,177.200 338.320 C 177.200 340.968,174.375 340.800,218.880 340.800 L 259.600 340.800 259.575 339.900 C 259.561 339.405,258.842 337.740,257.978 336.200 C 257.113 334.660,256.107 332.725,255.742 331.900 C 255.377 331.075,254.934 330.400,254.758 330.400 C 254.582 330.400,254.065 329.635,253.609 328.700 C 253.154 327.765,252.243 326.100,251.584 325.000 C 250.925 323.900,250.164 322.550,249.892 322.000 C 249.620 321.450,249.054 320.492,248.634 319.872 C 248.215 319.251,247.585 318.214,247.236 317.567 C 246.886 316.920,245.475 314.424,244.100 312.021 C 242.725 309.617,241.600 307.530,241.600 307.383 C 241.600 307.236,241.150 306.581,240.600 305.927 C 240.050 305.273,239.600 304.495,239.600 304.198 C 239.600 303.900,239.351 303.408,239.046 303.103 C 238.742 302.799,238.067 301.778,237.546 300.835 C 237.026 299.891,236.113 298.283,235.518 297.260 C 234.923 296.237,234.148 294.860,233.797 294.200 C 233.445 293.540,232.549 292.010,231.806 290.800 C 231.063 289.590,230.077 287.880,229.615 287.000 C 229.153 286.120,228.331 284.680,227.789 283.800 C 227.246 282.920,226.437 281.442,225.990 280.517 C 225.543 279.591,225.007 278.728,224.800 278.600 C 224.593 278.472,224.055 277.609,223.605 276.683 C 222.307 274.014,220.905 271.858,219.973 271.100 C 219.166 270.444,216.693 270.400,180.818 270.400 C 144.227 270.400,142.495 270.367,141.862 269.669 C 140.721 268.408,141.183 266.217,143.084 263.869 C 143.588 263.247,144.000 262.414,144.000 262.018 C 144.000 261.622,144.295 261.053,144.655 260.755 C 145.015 260.456,145.651 259.489,146.068 258.606 C 146.486 257.723,147.365 256.100,148.021 255.000 C 148.678 253.900,149.479 252.427,149.801 251.727 C 150.124 251.027,150.586 250.333,150.827 250.183 C 151.069 250.034,151.622 249.167,152.058 248.256 C 152.493 247.345,153.158 246.060,153.536 245.400 C 155.683 241.654,156.627 240.100,157.275 239.246 C 157.674 238.721,158.000 238.027,158.000 237.704 C 158.000 237.380,158.450 236.581,159.000 235.927 C 159.550 235.273,160.000 234.507,160.000 234.223 C 160.000 233.940,160.399 233.201,160.887 232.581 C 161.857 231.348,162.794 229.759,163.823 227.607 C 164.189 226.840,164.829 225.781,165.244 225.253 C 165.660 224.724,166.000 223.988,166.000 223.616 C 166.000 223.244,166.441 222.525,166.979 222.019 C 167.518 221.514,168.069 220.595,168.205 219.977 C 168.341 219.360,168.720 218.632,169.049 218.359 C 169.377 218.087,169.915 217.309,170.245 216.632 C 171.240 214.583,172.180 213.006,173.113 211.819 C 173.601 211.199,174.000 210.427,174.000 210.104 C 174.000 209.780,174.450 208.981,175.000 208.327 C 175.550 207.673,176.000 206.917,176.000 206.647 C 176.000 206.377,176.450 205.545,177.000 204.800 C 178.096 203.315,178.283 201.407,177.443 200.300 C 176.944 199.642,174.680 199.600,139.897 199.600 L 102.883 199.600 101.641 198.185 C 100.957 197.407,100.119 196.192,99.778 195.485 C 99.436 194.778,98.633 193.300,97.993 192.200 C 97.353 191.100,96.328 189.320,95.715 188.244 C 95.102 187.169,94.418 185.999,94.195 185.644 C 93.832 185.068,92.935 183.546,89.600 177.848 C 89.050 176.908,87.700 174.558,86.600 172.625 C 84.265 168.523,83.053 166.413,81.759 164.200 C 81.244 163.320,80.361 161.790,79.797 160.800 C 79.233 159.810,78.333 158.280,77.798 157.400 C 77.263 156.520,76.447 155.080,75.985 154.200 C 75.523 153.320,74.534 151.610,73.787 150.400 C 73.040 149.190,72.259 147.840,72.051 147.400 C 71.843 146.960,70.757 145.070,69.637 143.200 C 68.517 141.330,67.600 139.603,67.600 139.362 C 67.600 139.121,67.247 138.604,66.815 138.214 C 66.383 137.823,65.829 136.895,65.584 136.152 C 65.339 135.408,64.984 134.800,64.796 134.800 C 64.608 134.800,64.338 134.433,64.195 133.985 C 63.447 131.627,57.200 130.017,57.200 132.182 " stroke="none" fill="#348cf3" fill-rule="evenodd"></path><path id="path4" d="M62.771 131.639 C 64.210 132.214,66.345 134.448,66.612 135.659 C 66.740 136.241,67.195 137.034,67.623 137.421 C 68.050 137.807,68.400 138.352,68.400 138.631 C 68.400 138.910,68.825 139.647,69.345 140.269 C 69.865 140.891,70.426 141.850,70.591 142.400 C 70.757 142.950,71.211 143.760,71.600 144.200 C 71.989 144.640,72.441 145.450,72.604 146.000 C 72.766 146.550,73.244 147.329,73.666 147.731 C 74.087 148.132,74.541 149.003,74.673 149.665 C 74.805 150.327,75.142 150.956,75.420 151.063 C 75.699 151.170,76.152 151.830,76.428 152.529 C 76.704 153.228,77.240 154.160,77.619 154.600 C 77.998 155.040,78.437 155.823,78.594 156.339 C 78.751 156.856,79.227 157.627,79.652 158.052 C 80.077 158.477,80.532 159.359,80.663 160.013 C 80.793 160.666,81.068 161.200,81.272 161.200 C 81.477 161.200,81.993 161.986,82.418 162.947 C 82.843 163.908,83.445 164.905,83.756 165.164 C 84.067 165.422,84.434 166.080,84.571 166.627 C 84.708 167.173,85.171 167.971,85.600 168.400 C 86.029 168.829,86.500 169.660,86.648 170.248 C 86.795 170.835,87.245 171.645,87.648 172.048 C 88.050 172.450,88.503 173.279,88.654 173.890 C 88.806 174.500,89.246 175.225,89.633 175.500 C 90.020 175.776,90.455 176.541,90.600 177.200 C 90.745 177.860,91.039 178.400,91.254 178.400 C 91.469 178.400,91.993 179.186,92.418 180.147 C 92.843 181.108,93.445 182.105,93.756 182.364 C 94.067 182.622,94.441 183.308,94.587 183.890 C 94.733 184.471,95.290 185.467,95.826 186.104 C 96.362 186.740,96.800 187.613,96.800 188.043 C 96.800 188.473,97.061 188.925,97.381 189.048 C 97.700 189.170,98.157 189.863,98.396 190.587 C 98.635 191.311,99.173 192.214,99.592 192.593 C 100.012 192.973,100.463 193.759,100.596 194.341 C 100.728 194.924,101.363 195.982,102.007 196.694 L 103.178 197.988 139.957 198.094 L 176.736 198.200 177.839 199.200 L 178.942 200.200 177.976 198.805 C 177.445 198.038,176.693 197.093,176.305 196.705 C 175.917 196.317,175.600 195.752,175.600 195.449 C 175.600 195.146,175.305 194.653,174.945 194.355 C 174.585 194.056,173.946 193.089,173.525 192.206 C 172.768 190.619,172.030 189.292,169.100 184.251 C 168.275 182.832,167.600 181.496,167.600 181.284 C 167.600 181.072,167.305 180.653,166.945 180.355 C 166.585 180.056,165.950 179.089,165.534 178.206 C 164.754 176.550,163.112 173.706,162.530 173.000 C 162.349 172.780,161.874 171.970,161.476 171.200 C 161.078 170.430,160.234 168.900,159.600 167.800 C 158.966 166.700,158.122 165.170,157.724 164.400 C 157.326 163.630,156.889 162.910,156.754 162.800 C 156.618 162.690,156.111 161.880,155.627 161.000 C 155.143 160.120,154.309 158.680,153.775 157.800 C 153.240 156.920,152.416 155.397,151.945 154.415 C 151.473 153.434,150.854 152.397,150.568 152.111 C 150.282 151.825,149.822 150.963,149.544 150.196 C 149.266 149.428,148.889 148.800,148.705 148.800 C 148.522 148.800,148.007 148.035,147.561 147.100 C 146.445 144.758,145.409 142.933,144.753 142.151 C 144.200 141.492,143.805 140.775,141.213 135.710 C 140.450 134.220,139.640 132.868,139.413 132.706 C 139.186 132.544,122.416 132.409,102.146 132.406 C 70.240 132.401,65.138 132.320,64.146 131.802 C 63.516 131.474,62.730 131.215,62.400 131.228 C 62.070 131.240,62.237 131.425,62.771 131.639 M184.000 201.433 C 182.751 202.126,181.135 202.156,180.399 201.500 C 179.922 201.075,179.918 201.104,180.368 201.700 C 181.016 202.556,182.612 202.597,184.146 201.798 C 185.138 201.280,190.215 201.202,222.146 201.213 L 259.000 201.225 259.665 202.141 C 260.823 203.737,261.073 206.800,260.045 206.800 C 259.461 206.800,259.200 207.052,259.200 207.617 C 259.200 208.067,258.750 208.920,258.200 209.513 C 257.635 210.122,257.200 211.072,257.200 211.696 C 257.200 212.607,257.025 212.800,256.200 212.800 C 255.267 212.800,255.200 212.933,255.200 214.800 C 255.200 216.756,255.173 216.800,254.000 216.800 C 252.827 216.800,252.800 216.844,252.800 218.800 C 252.800 220.667,252.733 220.800,251.800 220.800 C 251.046 220.800,250.800 221.010,250.800 221.654 C 250.800 222.124,250.350 222.925,249.800 223.435 C 249.155 224.033,248.800 224.794,248.800 225.581 C 248.800 226.615,248.648 226.800,247.800 226.800 C 246.867 226.800,246.800 226.933,246.800 228.800 C 246.800 230.667,246.733 230.800,245.800 230.800 C 244.867 230.800,244.800 230.933,244.800 232.800 C 244.800 234.667,244.733 234.800,243.800 234.800 C 243.008 234.800,242.800 235.002,242.800 235.772 C 242.800 236.476,242.551 236.780,241.900 236.872 C 241.132 236.981,240.982 237.279,240.878 238.900 C 240.768 240.615,240.661 240.800,239.778 240.800 C 238.871 240.800,238.800 240.945,238.800 242.800 C 238.800 244.667,238.733 244.800,237.800 244.800 C 236.995 244.800,236.800 244.999,236.800 245.818 C 236.800 246.378,236.350 247.286,235.800 247.836 C 235.250 248.386,234.800 249.266,234.800 249.790 C 234.800 250.475,234.546 250.780,233.900 250.872 C 233.132 250.981,232.982 251.279,232.878 252.900 C 232.768 254.615,232.661 254.800,231.778 254.800 C 230.871 254.800,230.800 254.945,230.800 256.800 C 230.800 258.667,230.733 258.800,229.800 258.800 C 228.995 258.800,228.800 258.999,228.800 259.818 C 228.800 260.378,228.350 261.286,227.800 261.836 C 227.250 262.386,226.800 263.278,226.800 263.818 C 226.800 264.599,226.595 264.800,225.800 264.800 C 224.957 264.800,224.800 264.987,224.800 265.990 L 224.800 267.179 260.828 267.290 C 296.373 267.399,296.863 267.411,297.328 268.200 C 298.564 270.295,298.218 272.582,296.391 274.409 C 295.956 274.844,295.600 275.534,295.600 275.942 C 295.600 276.349,295.152 277.167,294.603 277.759 C 294.055 278.350,293.486 279.321,293.339 279.917 C 293.191 280.513,292.760 281.221,292.381 281.491 C 292.002 281.761,291.576 282.440,291.436 283.001 C 291.295 283.562,290.824 284.376,290.390 284.810 C 289.955 285.245,289.600 285.932,289.600 286.338 C 289.600 286.744,289.256 287.387,288.837 287.767 C 288.417 288.147,287.838 289.030,287.551 289.729 C 287.264 290.428,286.717 291.339,286.335 291.754 C 285.953 292.169,285.529 293.011,285.394 293.626 C 285.259 294.241,284.888 294.961,284.570 295.225 C 284.251 295.489,283.624 296.447,283.175 297.353 C 281.896 299.937,280.926 301.598,280.268 302.328 C 279.935 302.697,279.542 303.482,279.395 304.071 C 279.248 304.659,278.784 305.452,278.364 305.833 C 277.944 306.213,277.600 306.847,277.600 307.241 C 277.600 307.636,277.150 308.444,276.600 309.038 C 276.050 309.631,275.600 310.299,275.600 310.521 C 275.600 310.743,275.160 311.502,274.621 312.208 C 274.083 312.913,273.524 313.965,273.378 314.545 C 273.232 315.125,272.959 315.600,272.771 315.600 C 272.348 315.600,271.601 316.953,271.377 318.126 C 271.285 318.607,270.957 319.185,270.650 319.411 C 270.110 319.808,269.153 321.466,267.773 324.400 C 267.410 325.170,266.877 325.936,266.587 326.103 C 266.297 326.270,265.838 327.080,265.567 327.903 C 265.296 328.726,264.860 329.580,264.599 329.800 C 264.337 330.020,263.877 330.830,263.577 331.600 C 263.276 332.370,262.707 333.350,262.312 333.779 C 261.598 334.553,260.786 336.856,260.825 338.000 C 260.836 338.330,261.150 337.880,261.522 337.000 C 261.895 336.120,262.942 334.140,263.848 332.600 C 264.755 331.060,265.801 329.260,266.173 328.600 C 266.544 327.940,267.379 326.500,268.027 325.400 C 268.675 324.300,269.419 322.950,269.680 322.400 C 269.941 321.850,270.374 321.130,270.641 320.800 C 270.908 320.470,271.563 319.390,272.096 318.400 C 272.629 317.410,273.488 315.880,274.005 315.000 C 274.522 314.120,275.234 312.850,275.589 312.179 C 275.944 311.507,276.595 310.427,277.036 309.779 C 277.478 309.130,278.067 308.150,278.346 307.600 C 278.906 306.496,279.560 305.349,281.620 301.863 C 284.253 297.403,285.160 295.793,285.823 294.400 C 286.190 293.630,286.620 292.910,286.779 292.800 C 286.939 292.690,287.953 291.016,289.034 289.080 C 290.115 287.145,291.399 284.895,291.886 284.080 C 292.373 283.266,293.229 281.790,293.789 280.800 C 294.349 279.810,295.336 278.100,295.983 277.000 C 296.629 275.900,297.548 274.233,298.025 273.295 C 298.502 272.357,299.053 271.491,299.248 271.370 C 299.788 271.037,299.167 269.068,298.335 268.477 C 297.931 268.190,297.600 267.717,297.600 267.426 C 297.600 267.136,297.305 266.653,296.945 266.355 C 296.585 266.056,295.944 265.089,295.521 264.206 C 294.647 262.383,293.280 259.957,291.100 256.357 C 290.275 254.995,289.600 253.659,289.600 253.389 C 289.600 253.119,289.305 252.653,288.945 252.355 C 288.585 252.056,287.953 251.089,287.541 250.206 C 287.129 249.323,286.255 247.790,285.600 246.800 C 284.945 245.810,284.034 244.280,283.576 243.400 C 281.557 239.518,281.015 238.569,280.547 238.096 C 280.273 237.818,279.822 236.963,279.544 236.196 C 279.266 235.428,278.904 234.800,278.738 234.800 C 278.573 234.800,278.060 234.035,277.599 233.100 C 276.262 230.389,275.280 228.642,274.763 228.054 C 274.499 227.754,273.935 226.854,273.510 226.054 C 273.085 225.255,272.222 223.700,271.592 222.600 C 270.962 221.500,270.122 219.970,269.724 219.200 C 269.326 218.430,268.685 217.451,268.300 217.025 C 267.915 216.598,267.600 215.945,267.600 215.574 C 267.600 215.202,267.305 214.653,266.945 214.355 C 266.585 214.056,265.942 213.089,265.516 212.206 C 264.217 209.515,262.831 207.067,262.469 206.827 C 262.281 206.702,261.799 205.732,261.398 204.671 C 260.997 203.609,260.325 202.304,259.905 201.771 L 259.142 200.800 222.071 200.839 C 191.260 200.872,184.831 200.972,184.000 201.433 " stroke="none" fill="#64a4a3" fill-rule="evenodd"></path></g></svg>