<svg id="Layer_1" enable-background="new 0 0 512 512" height="512" viewBox="0 0 512 512" width="512" xmlns="http://www.w3.org/2000/svg"><g><g><g><path d="m407.922 165.383h41.581c18.814 0 35.238 12.748 39.905 30.974 6.671 26.055-13.01 51.41-39.905 51.41h-20.978 42.072c18.814 0 35.238 12.748 39.905 30.974l.188.735c6.689 26.122-13.107 51.518-40.072 51.41-10.026-.04-20.714-.072-31.358-.083-45.517-.048-117.45-.096-148.495-.096v145.377c0 36.664-50.608 49.802-68.647 17.751l-106.214-218v-214.205l29.442-27.28c24.143-22.06 55.756-34.304 88.567-34.304 65.171 0 123.505.262 173.124.086 18.873-.067 35.376 12.691 40.058 30.974l.123.482c6.671 26.055-13.01 51.41-39.905 51.41h-9.693 30.788c18.814 0 35.238 12.748 39.905 30.974 6.671 26.055-13.01 51.41-39.905 51.41h-20.486z" fill="#ffdbd3"/><g fill="#ffd1c7"><path d="m249.559 476.084v-145.377c10.149 0 24.669.005 41.207.014v145.363c0 30.722-35.533 44.925-57.664 29.865 9.584-6.037 16.457-16.353 16.457-29.865z"/><path d="m394.591 75.978c-.063-2.613.864-5.146 2.579-7.118 8.483-9.752 12.389-23.413 8.841-37.271l-.123-.482c-4.483-17.507-19.804-29.946-37.666-30.913 13.468 0 26.421-.017 38.828-.061 18.87-.067 35.366 12.694 40.045 30.974l.123.482c6.671 26.055-13.01 51.41-39.905 51.41h21.328c18.764 0 35.121 12.771 39.671 30.975 6.671 26.055-13.01 51.41-39.905 51.41h21.095c18.814 0 35.238 12.748 39.905 30.975 6.671 26.055-13.01 51.41-39.905 51.41h21.095c18.815 0 35.239 12.749 39.906 30.977l.187.732c6.687 26.123-13.109 51.519-40.074 51.41-10.025-.04-20.712-.072-31.355-.083-2.244-.003-4.552-.005-6.917-.007 25.447-1.663 43.583-26.154 37.139-51.32l-.188-.735c-4.666-18.226-21.088-30.974-39.902-30.974h-5.767v-2.93c18.471-7.396 29.891-27.716 24.575-48.48-4.667-18.227-21.09-30.975-39.905-30.975h-2.547l-.028-4.369c16.569-8.353 26.389-27.5 21.385-47.041-3.449-13.47-13.32-23.948-25.831-28.499-3.973-1.447-6.582-5.271-6.684-9.497z"/></g><g><g><g><path d="m62.029 0c-34.258 0-62.029 27.771-62.029 62.029v213.315c0 34.257 27.771 62.029 62.029 62.029 34.257 0 62.029-27.771 62.029-62.029v-213.315c-.001-34.258-27.772-62.029-62.029-62.029z" fill="#ff8ccc"/><path d="m62.029 337.372c-7.223 0-14.157-1.234-20.604-3.504 24.13-8.495 41.425-31.49 41.425-58.525v-213.314c0-27.035-17.295-50.03-41.425-58.525 6.447-2.27 13.381-3.504 20.604-3.504 34.257 0 62.029 27.771 62.029 62.029v213.315c-.001 34.257-27.772 62.028-62.029 62.028z" fill="#ff78c2"/><ellipse cx="62.029" cy="63.524" fill="#fff" rx="21.706" ry="21.55"/></g></g></g><g fill="#ffbcad"><path d="m449.503 173.109h-41.581c-4.267 0-7.726-3.459-7.726-7.726s3.459-7.726 7.726-7.726h41.581c4.267 0 7.726 3.459 7.726 7.726s-3.459 7.726-7.726 7.726z"/><path d="m428.408 90.724h-30.788c-4.267 0-7.726-3.459-7.726-7.726s3.459-7.726 7.726-7.726h30.788c4.267 0 7.726 3.459 7.726 7.726s-3.458 7.726-7.726 7.726z"/><path d="m470.598 255.493h-42.072c-4.267 0-7.726-3.459-7.726-7.726s3.459-7.726 7.726-7.726h42.072c4.267 0 7.726 3.459 7.726 7.726s-3.459 7.726-7.726 7.726z"/></g></g><g><ellipse cx="400.653" cy="440.589" fill="#ff8ccc" rx="71.236" ry="71.388"/><g fill="#fff"><path d="m426.88 473.523c-1.98 0-3.96-.757-5.469-2.269-5.551-5.563-12.923-8.627-20.758-8.627s-15.206 3.064-20.758 8.627c-3.015 3.021-7.907 3.025-10.927.012-3.021-3.014-3.026-7.906-.012-10.927 8.471-8.489 19.728-13.165 31.696-13.165 11.969 0 23.225 4.676 31.697 13.165 3.014 3.02 3.009 7.912-.012 10.927-1.508 1.504-3.483 2.257-5.457 2.257z"/><g><path d="m387.822 439.137c-1.306 0-2.629-.331-3.843-1.029l-20.3-11.667c-3.7-2.126-4.975-6.849-2.849-10.548s6.85-4.975 10.548-2.849l20.3 11.667c3.7 2.126 4.975 6.849 2.849 10.548-1.428 2.487-4.03 3.878-6.705 3.878z"/><path d="m413.483 439.137c-2.676 0-5.277-1.391-6.706-3.878-2.126-3.7-.851-8.423 2.849-10.549l20.3-11.667c3.698-2.127 8.423-.852 10.549 2.849 2.126 3.7.851 8.423-2.849 10.549l-20.3 11.667c-1.213.698-2.537 1.029-3.843 1.029z"/></g></g></g></g></g></svg>