<svg id="Capa_1" enable-background="new 0 0 512 512" height="512" viewBox="0 0 512 512" width="512" xmlns="http://www.w3.org/2000/svg"><g><path d="m127.958 391c-4.175-7.207-13.359-9.639-20.493-5.493l-16.465 9.507v-19.014c0-8.291-6.709-15-15-15s-15 6.709-15 15v19.014l-16.465-9.507c-7.192-4.146-16.362-1.714-20.493 5.493-4.146 7.178-1.685 16.348 5.493 20.493l16.463 9.507-16.463 9.507c-7.178 4.146-9.639 13.315-5.493 20.493 4.156 7.197 13.354 9.617 20.493 5.493l16.465-9.507v19.014c0 8.291 6.709 15 15 15s15-6.709 15-15v-19.014l16.465 9.507c7.153 4.132 16.344 1.691 20.493-5.493 4.146-7.178 1.685-16.348-5.493-20.493l-16.463-9.507 16.463-9.507c7.178-4.145 9.639-13.315 5.493-20.493z" fill="#b3f1ff"/><path d="m482.465 430.507-16.463-9.507 16.463-9.507c7.178-4.146 9.639-13.315 5.493-20.493-4.146-7.207-13.359-9.639-20.493-5.493l-16.465 9.507v-19.014c0-8.291-6.709-15-15-15s-15 6.709-15 15v19.014l-16.465-9.507c-7.192-4.146-16.333-1.714-20.493 5.493-4.146 7.178-1.685 16.348 5.493 20.493l16.463 9.507-16.463 9.507c-7.178 4.146-9.639 13.315-5.493 20.493 4.156 7.197 13.354 9.617 20.493 5.493l16.465-9.507v19.014c0 8.291 6.709 15 15 15s15-6.709 15-15v-19.014l16.465 9.507c7.153 4.132 16.344 1.691 20.493-5.493 4.146-7.178 1.685-16.348-5.493-20.493z" fill="#80dfff"/><path d="m450.517 131.342c.322-3.501.483-6.929.483-10.342 0-66.167-53.833-121-120-121-27.761 0-54.111 9.857-75 26.73-12.574 10.159-23.17 22.857-30.894 37.489-9.521-2.798-19.248-4.219-29.106-4.219-52.31 0-95.815 39.452-103.594 91.015-50.273-1.099-92.406 39.887-92.406 89.985 0 49.629 41.371 90 91 90h165 150c57.891 0 106-47.109 106-105 0-40.928-24.848-77.549-61.483-94.658z" fill="#f3f5f9"/><path d="m512 226c0-40.928-24.848-77.549-61.483-94.658.322-3.501.483-6.929.483-10.342 0-66.167-53.833-121-120-121-27.761 0-54.111 9.857-75 26.73v304.27h150c57.891 0 106-47.109 106-105z" fill="#e1e6f0"/><path d="m315.458 453.007-29.454-17.007 29.454-17.007c7.178-4.146 9.639-13.315 5.493-20.493-4.16-7.192-13.345-9.668-20.493-5.493l-29.458 17.009v-34.016c0-8.291-6.709-15-15-15s-15 6.709-15 15v34.016l-29.458-17.009c-7.192-4.175-16.348-1.699-20.493 5.493-4.146 7.178-1.685 16.348 5.493 20.493l29.454 17.007-29.454 17.007c-7.178 4.146-9.639 13.315-5.493 20.493 5.311 9.196 12.199 10.284 20.493 5.493l29.458-17.009v35.016c0 8.291 6.709 15 15 15s15-6.709 15-15v-35.016l29.458 17.009c7.152 4.133 16.344 1.69 20.493-5.493 4.146-7.178 1.685-16.348-5.493-20.493z" fill="#b3f1ff"/><path d="m271 497v-35.016l29.458 17.009c7.152 4.133 16.344 1.69 20.493-5.493 4.146-7.178 1.685-16.348-5.493-20.493l-29.454-17.007 29.454-17.007c7.178-4.146 9.639-13.315 5.493-20.493-4.16-7.192-13.345-9.668-20.493-5.493l-29.458 17.009v-34.016c0-8.291-6.709-15-15-15v151c8.291 0 15-6.709 15-15z" fill="#80dfff"/></g></svg>